<?xml version="1.0" encoding="utf-8" standalone="no"?>
<!DOCTYPE svg PUBLIC "-//W3C//DTD SVG 1.1//EN"
  "http://www.w3.org/Graphics/SVG/1.1/DTD/svg11.dtd">
<svg xmlns:xlink="http://www.w3.org/1999/xlink" width="516.096pt" height="214.56pt" viewBox="0 0 516.096 214.56" xmlns="http://www.w3.org/2000/svg" version="1.1">
 <metadata>
  <rdf:RDF xmlns:dc="http://purl.org/dc/elements/1.1/" xmlns:cc="http://creativecommons.org/ns#" xmlns:rdf="http://www.w3.org/1999/02/22-rdf-syntax-ns#">
   <cc:Work>
    <dc:type rdf:resource="http://purl.org/dc/dcmitype/StillImage"/>
    <dc:date>2026-07-11T06:06:45.128206</dc:date>
    <dc:format>image/svg+xml</dc:format>
    <dc:creator>
     <cc:Agent>
      <dc:title>Matplotlib v3.10.5, https://matplotlib.org/</dc:title>
     </cc:Agent>
    </dc:creator>
   </cc:Work>
  </rdf:RDF>
 </metadata>
 <defs>
  <style type="text/css">*{stroke-linejoin: round; stroke-linecap: butt}</style>
 </defs>
 <g id="figure_1">
  <g id="patch_1">
   <path d="M 0 214.56
L 516.096 214.56
L 516.096 0
L 0 0
z
" style="fill: #ffffff"/>
  </g>
  <g id="axes_1">
   <g id="patch_2">
    <path d="M 7.598592 199.57248
L 110.755008 199.57248
Q 114.860736 199.57248 114.860736 197.87904
L 114.860736 16.68096
Q 114.860736 14.98752 110.755008 14.98752
L 7.598592 14.98752
Q 3.492864 14.98752 3.492864 16.68096
L 3.492864 197.87904
Q 3.492864 199.57248 7.598592 199.57248
z
" clip-path="url(#p2f3f8816d9)" style="fill: #f7f8fa; stroke: #b8c0c8; stroke-width: 0.8; stroke-linejoin: miter"/>
   </g>
   <g id="patch_3">
    <path d="M 20.942208 89.97516
L 40.059504 89.97516
L 40.059504 82.09008
L 20.942208 82.09008
z
" clip-path="url(#p2f3f8816d9)" style="fill: #ffffff; stroke: #c7cdd4; stroke-width: 0.45; stroke-linejoin: miter"/>
   </g>
   <g id="patch_4">
    <path d="M 40.059504 89.97516
L 59.1768 89.97516
L 59.1768 82.09008
L 40.059504 82.09008
z
" clip-path="url(#p2f3f8816d9)" style="fill: #d9dde2; stroke: #c7cdd4; stroke-width: 0.45; stroke-linejoin: miter"/>
   </g>
   <g id="patch_5">
    <path d="M 59.1768 89.97516
L 78.294096 89.97516
L 78.294096 82.09008
L 59.1768 82.09008
z
" clip-path="url(#p2f3f8816d9)" style="fill: #ffffff; stroke: #c7cdd4; stroke-width: 0.45; stroke-linejoin: miter"/>
   </g>
   <g id="patch_6">
    <path d="M 78.294096 89.97516
L 97.411392 89.97516
L 97.411392 82.09008
L 78.294096 82.09008
z
" clip-path="url(#p2f3f8816d9)" style="fill: #ffffff; stroke: #c7cdd4; stroke-width: 0.45; stroke-linejoin: miter"/>
   </g>
   <g id="patch_7">
    <path d="M 20.942208 97.86024
L 40.059504 97.86024
L 40.059504 89.97516
L 20.942208 89.97516
z
" clip-path="url(#p2f3f8816d9)" style="fill: #ffffff; stroke: #c7cdd4; stroke-width: 0.45; stroke-linejoin: miter"/>
   </g>
   <g id="patch_8">
    <path d="M 40.059504 97.86024
L 59.1768 97.86024
L 59.1768 89.97516
L 40.059504 89.97516
z
" clip-path="url(#p2f3f8816d9)" style="fill: #d9dde2; stroke: #c7cdd4; stroke-width: 0.45; stroke-linejoin: miter"/>
   </g>
   <g id="patch_9">
    <path d="M 59.1768 97.86024
L 78.294096 97.86024
L 78.294096 89.97516
L 59.1768 89.97516
z
" clip-path="url(#p2f3f8816d9)" style="fill: #ffffff; stroke: #c7cdd4; stroke-width: 0.45; stroke-linejoin: miter"/>
   </g>
   <g id="patch_10">
    <path d="M 78.294096 97.86024
L 97.411392 97.86024
L 97.411392 89.97516
L 78.294096 89.97516
z
" clip-path="url(#p2f3f8816d9)" style="fill: #d9dde2; stroke: #c7cdd4; stroke-width: 0.45; stroke-linejoin: miter"/>
   </g>
   <g id="patch_11">
    <path d="M 20.942208 105.74532
L 40.059504 105.74532
L 40.059504 97.86024
L 20.942208 97.86024
z
" clip-path="url(#p2f3f8816d9)" style="fill: #ffffff; stroke: #c7cdd4; stroke-width: 0.45; stroke-linejoin: miter"/>
   </g>
   <g id="patch_12">
    <path d="M 40.059504 105.74532
L 59.1768 105.74532
L 59.1768 97.86024
L 40.059504 97.86024
z
" clip-path="url(#p2f3f8816d9)" style="fill: #ffffff; stroke: #c7cdd4; stroke-width: 0.45; stroke-linejoin: miter"/>
   </g>
   <g id="patch_13">
    <path d="M 59.1768 105.74532
L 78.294096 105.74532
L 78.294096 97.86024
L 59.1768 97.86024
z
" clip-path="url(#p2f3f8816d9)" style="fill: #ffffff; stroke: #c7cdd4; stroke-width: 0.45; stroke-linejoin: miter"/>
   </g>
   <g id="patch_14">
    <path d="M 78.294096 105.74532
L 97.411392 105.74532
L 97.411392 97.86024
L 78.294096 97.86024
z
" clip-path="url(#p2f3f8816d9)" style="fill: #ffffff; stroke: #c7cdd4; stroke-width: 0.45; stroke-linejoin: miter"/>
   </g>
   <g id="patch_15">
    <path d="M 20.942208 113.6304
L 40.059504 113.6304
L 40.059504 105.74532
L 20.942208 105.74532
z
" clip-path="url(#p2f3f8816d9)" style="fill: #ffffff; stroke: #c7cdd4; stroke-width: 0.45; stroke-linejoin: miter"/>
   </g>
   <g id="patch_16">
    <path d="M 40.059504 113.6304
L 59.1768 113.6304
L 59.1768 105.74532
L 40.059504 105.74532
z
" clip-path="url(#p2f3f8816d9)" style="fill: #d9dde2; stroke: #c7cdd4; stroke-width: 0.45; stroke-linejoin: miter"/>
   </g>
   <g id="patch_17">
    <path d="M 59.1768 113.6304
L 78.294096 113.6304
L 78.294096 105.74532
L 59.1768 105.74532
z
" clip-path="url(#p2f3f8816d9)" style="fill: #ffffff; stroke: #c7cdd4; stroke-width: 0.45; stroke-linejoin: miter"/>
   </g>
   <g id="patch_18">
    <path d="M 78.294096 113.6304
L 97.411392 113.6304
L 97.411392 105.74532
L 78.294096 105.74532
z
" clip-path="url(#p2f3f8816d9)" style="fill: #ffffff; stroke: #c7cdd4; stroke-width: 0.45; stroke-linejoin: miter"/>
   </g>
   <g id="patch_19">
    <path d="M 133.336512 199.57248
L 246.757248 199.57248
Q 250.862976 199.57248 250.862976 197.87904
L 250.862976 16.68096
Q 250.862976 14.98752 246.757248 14.98752
L 133.336512 14.98752
Q 129.230784 14.98752 129.230784 16.68096
L 129.230784 197.87904
Q 129.230784 199.57248 133.336512 199.57248
z
" clip-path="url(#p2f3f8816d9)" style="fill: #f7f8fa; stroke: #b8c0c8; stroke-width: 0.8; stroke-linejoin: miter"/>
   </g>
   <g id="patch_20">
    <path d="M 150.27264 91.9332
L 163.53072 91.9332
L 163.53072 77.6448
L 150.27264 77.6448
z
" clip-path="url(#p2f3f8816d9)" style="fill: #d9e7f5; stroke: #ffffff; stroke-width: 0.35; stroke-linejoin: miter"/>
   </g>
   <g id="patch_21">
    <path d="M 163.53072 91.9332
L 176.7888 91.9332
L 176.7888 77.6448
L 163.53072 77.6448
z
" clip-path="url(#p2f3f8816d9)" style="fill: #d1e2f3; stroke: #ffffff; stroke-width: 0.35; stroke-linejoin: miter"/>
   </g>
   <g id="patch_22">
    <path d="M 176.7888 91.9332
L 190.04688 91.9332
L 190.04688 77.6448
L 176.7888 77.6448
z
" clip-path="url(#p2f3f8816d9)" style="fill: #b7d4ea; stroke: #ffffff; stroke-width: 0.35; stroke-linejoin: miter"/>
   </g>
   <g id="patch_23">
    <path d="M 190.04688 91.9332
L 203.30496 91.9332
L 203.30496 77.6448
L 190.04688 77.6448
z
" clip-path="url(#p2f3f8816d9)" style="fill: #82bbdb; stroke: #ffffff; stroke-width: 0.35; stroke-linejoin: miter"/>
   </g>
   <g id="patch_24">
    <path d="M 203.30496 91.9332
L 216.56304 91.9332
L 216.56304 77.6448
L 203.30496 77.6448
z
" clip-path="url(#p2f3f8816d9)" style="fill: #4e9acb; stroke: #ffffff; stroke-width: 0.35; stroke-linejoin: miter"/>
   </g>
   <g id="patch_25">
    <path d="M 216.56304 91.9332
L 229.82112 91.9332
L 229.82112 77.6448
L 216.56304 77.6448
z
" clip-path="url(#p2f3f8816d9)" style="fill: #2575b7; stroke: #ffffff; stroke-width: 0.35; stroke-linejoin: miter"/>
   </g>
   <g id="patch_26">
    <path d="M 150.27264 106.2216
L 163.53072 106.2216
L 163.53072 91.9332
L 150.27264 91.9332
z
" clip-path="url(#p2f3f8816d9)" style="fill: #d4e4f4; stroke: #ffffff; stroke-width: 0.35; stroke-linejoin: miter"/>
   </g>
   <g id="patch_27">
    <path d="M 163.53072 106.2216
L 176.7888 106.2216
L 176.7888 91.9332
L 163.53072 91.9332
z
" clip-path="url(#p2f3f8816d9)" style="fill: #c7dbef; stroke: #ffffff; stroke-width: 0.35; stroke-linejoin: miter"/>
   </g>
   <g id="patch_28">
    <path d="M 176.7888 106.2216
L 190.04688 106.2216
L 190.04688 91.9332
L 176.7888 91.9332
z
" clip-path="url(#p2f3f8816d9)" style="fill: #9fcae1; stroke: #ffffff; stroke-width: 0.35; stroke-linejoin: miter"/>
   </g>
   <g id="patch_29">
    <path d="M 190.04688 106.2216
L 203.30496 106.2216
L 203.30496 91.9332
L 190.04688 91.9332
z
" clip-path="url(#p2f3f8816d9)" style="fill: #65aad4; stroke: #ffffff; stroke-width: 0.35; stroke-linejoin: miter"/>
   </g>
   <g id="patch_30">
    <path d="M 203.30496 106.2216
L 216.56304 106.2216
L 216.56304 91.9332
L 203.30496 91.9332
z
" clip-path="url(#p2f3f8816d9)" style="fill: #3e8ec4; stroke: #ffffff; stroke-width: 0.35; stroke-linejoin: miter"/>
   </g>
   <g id="patch_31">
    <path d="M 216.56304 106.2216
L 229.82112 106.2216
L 229.82112 91.9332
L 216.56304 91.9332
z
" clip-path="url(#p2f3f8816d9)" style="fill: #1a68ae; stroke: #ffffff; stroke-width: 0.35; stroke-linejoin: miter"/>
   </g>
   <g id="patch_32">
    <path d="M 150.27264 120.51
L 163.53072 120.51
L 163.53072 106.2216
L 150.27264 106.2216
z
" clip-path="url(#p2f3f8816d9)" style="fill: #cfe1f2; stroke: #ffffff; stroke-width: 0.35; stroke-linejoin: miter"/>
   </g>
   <g id="patch_33">
    <path d="M 163.53072 120.51
L 176.7888 120.51
L 176.7888 106.2216
L 163.53072 106.2216
z
" clip-path="url(#p2f3f8816d9)" style="fill: #afd1e7; stroke: #ffffff; stroke-width: 0.35; stroke-linejoin: miter"/>
   </g>
   <g id="patch_34">
    <path d="M 176.7888 120.51
L 190.04688 120.51
L 190.04688 106.2216
L 176.7888 106.2216
z
" clip-path="url(#p2f3f8816d9)" style="fill: #5fa6d1; stroke: #ffffff; stroke-width: 0.35; stroke-linejoin: miter"/>
   </g>
   <g id="patch_35">
    <path d="M 190.04688 120.51
L 203.30496 120.51
L 203.30496 106.2216
L 190.04688 106.2216
z
" clip-path="url(#p2f3f8816d9)" style="fill: #3383be; stroke: #ffffff; stroke-width: 0.35; stroke-linejoin: miter"/>
   </g>
   <g id="patch_36">
    <path d="M 203.30496 120.51
L 216.56304 120.51
L 216.56304 106.2216
L 203.30496 106.2216
z
" clip-path="url(#p2f3f8816d9)" style="fill: #56a0ce; stroke: #ffffff; stroke-width: 0.35; stroke-linejoin: miter"/>
   </g>
   <g id="patch_37">
    <path d="M 216.56304 120.51
L 229.82112 120.51
L 229.82112 106.2216
L 216.56304 106.2216
z
" clip-path="url(#p2f3f8816d9)" style="fill: #1561a9; stroke: #ffffff; stroke-width: 0.35; stroke-linejoin: miter"/>
   </g>
   <g id="patch_38">
    <path d="M 150.27264 134.7984
L 163.53072 134.7984
L 163.53072 120.51
L 150.27264 120.51
z
" clip-path="url(#p2f3f8816d9)" style="fill: #c2d9ee; stroke: #ffffff; stroke-width: 0.35; stroke-linejoin: miter"/>
   </g>
   <g id="patch_39">
    <path d="M 163.53072 134.7984
L 176.7888 134.7984
L 176.7888 120.51
L 163.53072 120.51
z
" clip-path="url(#p2f3f8816d9)" style="fill: #8abfdd; stroke: #ffffff; stroke-width: 0.35; stroke-linejoin: miter"/>
   </g>
   <g id="patch_40">
    <path d="M 176.7888 134.7984
L 190.04688 134.7984
L 190.04688 120.51
L 176.7888 120.51
z
" clip-path="url(#p2f3f8816d9)" style="fill: #4292c6; stroke: #ffffff; stroke-width: 0.35; stroke-linejoin: miter"/>
   </g>
   <g id="patch_41">
    <path d="M 190.04688 134.7984
L 203.30496 134.7984
L 203.30496 120.51
L 190.04688 120.51
z
" clip-path="url(#p2f3f8816d9)" style="fill: #74b3d8; stroke: #ffffff; stroke-width: 0.35; stroke-linejoin: miter"/>
   </g>
   <g id="patch_42">
    <path d="M 203.30496 134.7984
L 216.56304 134.7984
L 216.56304 120.51
L 203.30496 120.51
z
" clip-path="url(#p2f3f8816d9)" style="fill: #2c7cba; stroke: #ffffff; stroke-width: 0.35; stroke-linejoin: miter"/>
   </g>
   <g id="patch_43">
    <path d="M 216.56304 134.7984
L 229.82112 134.7984
L 229.82112 120.51
L 216.56304 120.51
z
" clip-path="url(#p2f3f8816d9)" style="fill: #0e59a2; stroke: #ffffff; stroke-width: 0.35; stroke-linejoin: miter"/>
   </g>
   <g id="patch_44">
    <path d="M 269.338752 199.57248
L 372.495168 199.57248
Q 376.600896 199.57248 376.600896 197.87904
L 376.600896 16.68096
Q 376.600896 14.98752 372.495168 14.98752
L 269.338752 14.98752
Q 265.233024 14.98752 265.233024 16.68096
L 265.233024 197.87904
Q 265.233024 199.57248 269.338752 199.57248
z
" clip-path="url(#p2f3f8816d9)" style="fill: #f7f8fa; stroke: #b8c0c8; stroke-width: 0.8; stroke-linejoin: miter"/>
   </g>
   <g id="patch_45">
    <path d="M 287.234497 114.595777
Q 300.387989 98.813197 312.82569 83.889479
" clip-path="url(#p2f3f8816d9)" style="fill: none; stroke: #8b949e; stroke-linecap: round"/>
    <path d="M 309.138147 85.502558
L 312.82569 83.889479
L 311.903628 87.807361
z
" clip-path="url(#p2f3f8816d9)" style="fill: #8b949e; stroke: #8b949e; stroke-linecap: round"/>
   </g>
   <g id="patch_46">
    <path d="M 287.652676 116.345392
Q 310.654758 126.332119 332.631293 135.873589
" clip-path="url(#p2f3f8816d9)" style="fill: none; stroke: #8b949e; stroke-linecap: round"/>
    <path d="M 330.045948 132.788789
L 332.631293 135.873589
L 328.612246 136.090985
z
" clip-path="url(#p2f3f8816d9)" style="fill: #8b949e; stroke: #8b949e; stroke-linecap: round"/>
   </g>
   <g id="patch_47">
    <path d="M 315.807353 82.618841
Q 335.031748 93.521565 353.283622 103.872743
" clip-path="url(#p2f3f8816d9)" style="fill: none; stroke: #8b949e; stroke-linecap: round"/>
    <path d="M 351.040136 100.531072
L 353.283622 103.872743
L 349.264193 103.66253
z
" clip-path="url(#p2f3f8816d9)" style="fill: #8b949e; stroke: #8b949e; stroke-linecap: round"/>
   </g>
   <g id="patch_48">
    <path d="M 335.84483 135.655508
Q 345.29403 121.040268 354.136206 107.363922
" clip-path="url(#p2f3f8816d9)" style="fill: none; stroke: #8b949e; stroke-linecap: round"/>
    <path d="M 350.670037 109.409813
L 354.136206 107.363922
L 353.693217 111.364392
z
" clip-path="url(#p2f3f8816d9)" style="fill: #8b949e; stroke: #8b949e; stroke-linecap: round"/>
   </g>
   <g id="patch_49">
    <path d="M 315.026754 83.285896
Q 324.766688 109.398431 334.115894 134.46343
" clip-path="url(#p2f3f8816d9)" style="fill: none; stroke: #8b949e; stroke-linecap: round"/>
    <path d="M 334.54427 130.461369
L 334.115894 134.46343
L 331.171271 131.719493
z
" clip-path="url(#p2f3f8816d9)" style="fill: #8b949e; stroke: #8b949e; stroke-linecap: round"/>
   </g>
   <g id="patch_50">
    <path d="M 395.076672 199.57248
L 508.497408 199.57248
Q 512.603136 199.57248 512.603136 197.87904
L 512.603136 16.68096
Q 512.603136 14.98752 508.497408 14.98752
L 395.076672 14.98752
Q 390.970944 14.98752 390.970944 16.68096
L 390.970944 197.87904
Q 390.970944 199.57248 395.076672 199.57248
z
" clip-path="url(#p2f3f8816d9)" style="fill: #f7f8fa; stroke: #b8c0c8; stroke-width: 0.8; stroke-linejoin: miter"/>
   </g>
   <g id="patch_51">
    <path d="M 451.78704 56.4768
L 497.97648 77.6448
L 451.78704 98.8128
L 405.5976 77.6448
z
" clip-path="url(#p2f3f8816d9)" style="fill: #ffffff; stroke: #7b6da8; stroke-linejoin: miter"/>
   </g>
   <g id="patch_52">
    <path d="M 402.774912 171.63072
L 452.043648 171.63072
Q 455.122944 171.63072 455.122944 170.36064
L 455.122944 135.22176
Q 455.122944 133.95168 452.043648 133.95168
L 402.774912 133.95168
Q 399.695616 133.95168 399.695616 135.22176
L 399.695616 170.36064
Q 399.695616 171.63072 402.774912 171.63072
z
" clip-path="url(#p2f3f8816d9)" style="fill: #e8f3ef; stroke: #4f9b8f; stroke-width: 0.8; stroke-linejoin: miter"/>
   </g>
   <g id="patch_53">
    <path d="M 451.530432 171.63072
L 500.799168 171.63072
Q 503.878464 171.63072 503.878464 170.36064
L 503.878464 135.22176
Q 503.878464 133.95168 500.799168 133.95168
L 451.530432 133.95168
Q 448.451136 133.95168 448.451136 135.22176
L 448.451136 170.36064
Q 448.451136 171.63072 451.530432 171.63072
z
" clip-path="url(#p2f3f8816d9)" style="fill: #f8ecea; stroke: #c65d57; stroke-width: 0.8; stroke-linejoin: miter"/>
   </g>
   <g id="patch_54">
    <path d="M 428.835628 96.076619
Q 430.617286 114.693042 432.29243 132.196516
" clip-path="url(#p2f3f8816d9)" style="fill: none; stroke: #4f9b8f; stroke-linecap: round"/>
    <path d="M 433.741278 128.441407
L 432.29243 132.196516
L 430.157652 128.784373
z
" clip-path="url(#p2f3f8816d9)" style="fill: #4f9b8f; stroke: #4f9b8f; stroke-linecap: round"/>
   </g>
   <g id="patch_55">
    <path d="M 474.738452 96.076619
Q 472.956794 114.693042 471.28165 132.196516
" clip-path="url(#p2f3f8816d9)" style="fill: none; stroke: #c65d57; stroke-linecap: round"/>
    <path d="M 473.416428 128.784373
L 471.28165 132.196516
L 469.832802 128.441407
z
" clip-path="url(#p2f3f8816d9)" style="fill: #c65d57; stroke: #c65d57; stroke-linecap: round"/>
   </g>
   <g id="patch_56">
    <path d="M 114.309931 107.28
Q 122.048802 107.28 128.669639 107.28
" clip-path="url(#p2f3f8816d9)" style="fill: none; stroke: #68717c; stroke-linecap: round"/>
    <path d="M 125.069639 105.48
L 128.669639 107.28
L 125.069639 109.08
z
" clip-path="url(#p2f3f8816d9)" style="fill: #68717c; stroke: #68717c; stroke-linecap: round"/>
   </g>
   <g id="patch_57">
    <path d="M 250.312171 107.28
Q 258.051042 107.28 264.671879 107.28
" clip-path="url(#p2f3f8816d9)" style="fill: none; stroke: #68717c; stroke-linecap: round"/>
    <path d="M 261.071879 105.48
L 264.671879 107.28
L 261.071879 109.08
z
" clip-path="url(#p2f3f8816d9)" style="fill: #68717c; stroke: #68717c; stroke-linecap: round"/>
   </g>
   <g id="patch_58">
    <path d="M 376.050091 107.28
Q 383.788962 107.28 390.409799 107.28
" clip-path="url(#p2f3f8816d9)" style="fill: none; stroke: #68717c; stroke-linecap: round"/>
    <path d="M 386.809799 105.48
L 390.409799 107.28
L 386.809799 109.08
z
" clip-path="url(#p2f3f8816d9)" style="fill: #68717c; stroke: #68717c; stroke-linecap: round"/>
   </g>
   <g id="line2d_1">
    <defs>
     <path id="m0aab4f49d0" d="M 0 0.85
C 0.225423 0.85 0.441643 0.760439 0.601041 0.601041
C 0.760439 0.441643 0.85 0.225423 0.85 0
C 0.85 -0.225423 0.760439 -0.441643 0.601041 -0.601041
C 0.441643 -0.760439 0.225423 -0.85 0 -0.85
C -0.225423 -0.85 -0.441643 -0.760439 -0.601041 -0.601041
C -0.760439 -0.441643 -0.85 -0.225423 -0.85 0
C -0.85 0.225423 -0.760439 0.441643 -0.601041 0.601041
C -0.441643 0.760439 -0.225423 0.85 0 0.85
z
" style="stroke: #aeb6bf"/>
    </defs>
    <g clip-path="url(#p2f3f8816d9)">
     <use xlink:href="#m0aab4f49d0" x="30.500856" y="86.03262" style="fill: #aeb6bf; stroke: #aeb6bf"/>
    </g>
   </g>
   <g id="line2d_2">
    <g clip-path="url(#p2f3f8816d9)">
     <use xlink:href="#m0aab4f49d0" x="68.735448" y="86.03262" style="fill: #aeb6bf; stroke: #aeb6bf"/>
    </g>
   </g>
   <g id="line2d_3">
    <g clip-path="url(#p2f3f8816d9)">
     <use xlink:href="#m0aab4f49d0" x="87.852744" y="86.03262" style="fill: #aeb6bf; stroke: #aeb6bf"/>
    </g>
   </g>
   <g id="line2d_4">
    <g clip-path="url(#p2f3f8816d9)">
     <use xlink:href="#m0aab4f49d0" x="30.500856" y="93.9177" style="fill: #aeb6bf; stroke: #aeb6bf"/>
    </g>
   </g>
   <g id="line2d_5">
    <g clip-path="url(#p2f3f8816d9)">
     <use xlink:href="#m0aab4f49d0" x="68.735448" y="93.9177" style="fill: #aeb6bf; stroke: #aeb6bf"/>
    </g>
   </g>
   <g id="line2d_6">
    <g clip-path="url(#p2f3f8816d9)">
     <use xlink:href="#m0aab4f49d0" x="30.500856" y="101.80278" style="fill: #aeb6bf; stroke: #aeb6bf"/>
    </g>
   </g>
   <g id="line2d_7">
    <g clip-path="url(#p2f3f8816d9)">
     <use xlink:href="#m0aab4f49d0" x="49.618152" y="101.80278" style="fill: #aeb6bf; stroke: #aeb6bf"/>
    </g>
   </g>
   <g id="line2d_8">
    <g clip-path="url(#p2f3f8816d9)">
     <use xlink:href="#m0aab4f49d0" x="68.735448" y="101.80278" style="fill: #aeb6bf; stroke: #aeb6bf"/>
    </g>
   </g>
   <g id="line2d_9">
    <g clip-path="url(#p2f3f8816d9)">
     <use xlink:href="#m0aab4f49d0" x="87.852744" y="101.80278" style="fill: #aeb6bf; stroke: #aeb6bf"/>
    </g>
   </g>
   <g id="line2d_10">
    <g clip-path="url(#p2f3f8816d9)">
     <use xlink:href="#m0aab4f49d0" x="30.500856" y="109.68786" style="fill: #aeb6bf; stroke: #aeb6bf"/>
    </g>
   </g>
   <g id="line2d_11">
    <g clip-path="url(#p2f3f8816d9)">
     <use xlink:href="#m0aab4f49d0" x="68.735448" y="109.68786" style="fill: #aeb6bf; stroke: #aeb6bf"/>
    </g>
   </g>
   <g id="line2d_12">
    <g clip-path="url(#p2f3f8816d9)">
     <use xlink:href="#m0aab4f49d0" x="87.852744" y="109.68786" style="fill: #aeb6bf; stroke: #aeb6bf"/>
    </g>
   </g>
   <g id="line2d_13">
    <path d="M 24.53472 155.9664
" style="fill: none; stroke: #4c78a8; stroke-width: 1.5; stroke-linecap: square"/>
    <defs>
     <path id="m7a3c1a034f" d="M -2 2
L 2 2
L 2 -2
L -2 -2
z
" style="stroke: #4c78a8; stroke-linejoin: miter"/>
    </defs>
    <g>
     <use xlink:href="#m7a3c1a034f" x="24.53472" y="155.9664" style="fill: #4c78a8; stroke: #4c78a8; stroke-linejoin: miter"/>
    </g>
   </g>
   <g id="line2d_14">
    <path d="M 33.259392 155.9664
" style="fill: none; stroke: #c65d57; stroke-width: 1.5; stroke-linecap: square"/>
    <defs>
     <path id="m1528857fd7" d="M 0 -2.75
L -0.617413 -0.849797
L -2.615405 -0.849797
L -0.998996 0.324593
L -1.616409 2.224797
L -0 1.050407
L 1.616409 2.224797
L 0.998996 0.324593
L 2.615405 -0.849797
L 0.617413 -0.849797
z
" style="stroke: #c65d57; stroke-linejoin: bevel"/>
    </defs>
    <g>
     <use xlink:href="#m1528857fd7" x="33.259392" y="155.9664" style="fill: #c65d57; stroke: #c65d57; stroke-linejoin: bevel"/>
    </g>
   </g>
   <g id="line2d_15">
    <path d="M 28.640448 176.076
" clip-path="url(#p2f3f8816d9)" style="fill: none; stroke: #d62728; stroke-width: 1.5; stroke-linecap: square"/>
    <defs>
     <path id="mdfe86274dd" d="M 0 2.2
C 0.583447 2.2 1.143076 1.968194 1.555635 1.555635
C 1.968194 1.143076 2.2 0.583447 2.2 0
C 2.2 -0.583447 1.968194 -1.143076 1.555635 -1.555635
C 1.143076 -1.968194 0.583447 -2.2 0 -2.2
C -0.583447 -2.2 -1.143076 -1.968194 -1.555635 -1.555635
C -1.968194 -1.143076 -2.2 -0.583447 -2.2 0
C -2.2 0.583447 -1.968194 1.143076 -1.555635 1.555635
C -1.143076 1.968194 -0.583447 2.2 0 2.2
z
" style="stroke: #d5a23f"/>
    </defs>
    <g clip-path="url(#p2f3f8816d9)">
     <use xlink:href="#mdfe86274dd" x="28.640448" y="176.076" style="fill: #ffffff; stroke: #d5a23f"/>
    </g>
   </g>
   <g id="line2d_16">
    <path d="M 145.14048 164.4336
" clip-path="url(#p2f3f8816d9)" style="fill: none; stroke: #4c78a8; stroke-width: 1.5; stroke-linecap: square"/>
    <defs>
     <path id="m0c05afec24" d="M 0 1.8
C 0.477366 1.8 0.935244 1.610341 1.272792 1.272792
C 1.610341 0.935244 1.8 0.477366 1.8 0
C 1.8 -0.477366 1.610341 -0.935244 1.272792 -1.272792
C 0.935244 -1.610341 0.477366 -1.8 0 -1.8
C -0.477366 -1.8 -0.935244 -1.610341 -1.272792 -1.272792
C -1.610341 -0.935244 -1.8 -0.477366 -1.8 0
C -1.8 0.477366 -1.610341 0.935244 -1.272792 1.272792
C -0.935244 1.610341 -0.477366 1.8 0 1.8
z
" style="stroke: #4c78a8"/>
    </defs>
    <g clip-path="url(#p2f3f8816d9)">
     <use xlink:href="#m0c05afec24" x="145.14048" y="164.4336" style="fill: #4c78a8; stroke: #4c78a8"/>
    </g>
   </g>
   <g id="line2d_17">
    <path d="M 180.039168 164.4336
" clip-path="url(#p2f3f8816d9)" style="fill: none; stroke: #4f9b8f; stroke-width: 1.5; stroke-linecap: square"/>
    <defs>
     <path id="m4df63dab58" d="M 0 1.8
C 0.477366 1.8 0.935244 1.610341 1.272792 1.272792
C 1.610341 0.935244 1.8 0.477366 1.8 0
C 1.8 -0.477366 1.610341 -0.935244 1.272792 -1.272792
C 0.935244 -1.610341 0.477366 -1.8 0 -1.8
C -0.477366 -1.8 -0.935244 -1.610341 -1.272792 -1.272792
C -1.610341 -0.935244 -1.8 -0.477366 -1.8 0
C -1.8 0.477366 -1.610341 0.935244 -1.272792 1.272792
C -0.935244 1.610341 -0.477366 1.8 0 1.8
z
" style="stroke: #4f9b8f"/>
    </defs>
    <g clip-path="url(#p2f3f8816d9)">
     <use xlink:href="#m4df63dab58" x="180.039168" y="164.4336" style="fill: #4f9b8f; stroke: #4f9b8f"/>
    </g>
   </g>
   <g id="line2d_18">
    <path d="M 214.937856 164.4336
" clip-path="url(#p2f3f8816d9)" style="fill: none; stroke: #7b6da8; stroke-width: 1.5; stroke-linecap: square"/>
    <defs>
     <path id="m8ef54240fa" d="M 0 1.8
C 0.477366 1.8 0.935244 1.610341 1.272792 1.272792
C 1.610341 0.935244 1.8 0.477366 1.8 0
C 1.8 -0.477366 1.610341 -0.935244 1.272792 -1.272792
C 0.935244 -1.610341 0.477366 -1.8 0 -1.8
C -0.477366 -1.8 -0.935244 -1.610341 -1.272792 -1.272792
C -1.610341 -0.935244 -1.8 -0.477366 -1.8 0
C -1.8 0.477366 -1.610341 0.935244 -1.272792 1.272792
C -0.935244 1.610341 -0.477366 1.8 0 1.8
z
" style="stroke: #7b6da8"/>
    </defs>
    <g clip-path="url(#p2f3f8816d9)">
     <use xlink:href="#m8ef54240fa" x="214.937856" y="164.4336" style="fill: #7b6da8; stroke: #7b6da8"/>
    </g>
   </g>
   <g id="line2d_19">
    <path d="M 145.14048 178.1928
" clip-path="url(#p2f3f8816d9)" style="fill: none; stroke: #d5a23f; stroke-width: 1.5; stroke-linecap: square"/>
    <defs>
     <path id="m6b7b4aaec9" d="M 0 1.8
C 0.477366 1.8 0.935244 1.610341 1.272792 1.272792
C 1.610341 0.935244 1.8 0.477366 1.8 0
C 1.8 -0.477366 1.610341 -0.935244 1.272792 -1.272792
C 0.935244 -1.610341 0.477366 -1.8 0 -1.8
C -0.477366 -1.8 -0.935244 -1.610341 -1.272792 -1.272792
C -1.610341 -0.935244 -1.8 -0.477366 -1.8 0
C -1.8 0.477366 -1.610341 0.935244 -1.272792 1.272792
C -0.935244 1.610341 -0.477366 1.8 0 1.8
z
" style="stroke: #d5a23f"/>
    </defs>
    <g clip-path="url(#p2f3f8816d9)">
     <use xlink:href="#m6b7b4aaec9" x="145.14048" y="178.1928" style="fill: #d5a23f; stroke: #d5a23f"/>
    </g>
   </g>
   <g id="line2d_20">
    <path d="M 180.039168 178.1928
" clip-path="url(#p2f3f8816d9)" style="fill: none; stroke: #c65d57; stroke-width: 1.5; stroke-linecap: square"/>
    <defs>
     <path id="m4cc63e7a32" d="M 0 1.8
C 0.477366 1.8 0.935244 1.610341 1.272792 1.272792
C 1.610341 0.935244 1.8 0.477366 1.8 0
C 1.8 -0.477366 1.610341 -0.935244 1.272792 -1.272792
C 0.935244 -1.610341 0.477366 -1.8 0 -1.8
C -0.477366 -1.8 -0.935244 -1.610341 -1.272792 -1.272792
C -1.610341 -0.935244 -1.8 -0.477366 -1.8 0
C -1.8 0.477366 -1.610341 0.935244 -1.272792 1.272792
C -0.935244 1.610341 -0.477366 1.8 0 1.8
z
" style="stroke: #c65d57"/>
    </defs>
    <g clip-path="url(#p2f3f8816d9)">
     <use xlink:href="#m4cc63e7a32" x="180.039168" y="178.1928" style="fill: #c65d57; stroke: #c65d57"/>
    </g>
   </g>
   <g id="text_1">
    <text style="font-weight: 700; font-size: 8px; font-family: 'Arial', 'Helvetica', 'DejaVu Sans', sans-serif; text-anchor: start; fill: #20252b" x="12.730752" y="23.6664" transform="rotate(-0 12.730752 23.6664)">a</text>
   </g>
   <g id="text_2">
    <text style="font-weight: 700; font-size: 7.4px; font-family: 'Arial', 'Helvetica', 'DejaVu Sans', sans-serif; text-anchor: start; fill: #20252b" x="26.074368" y="23.6664" transform="rotate(-0 26.074368 23.6664)">Primitive finite MDP</text>
   </g>
   <g id="text_3">
    <!-- many primitive states $|\mathcal{S}|$ -->
    <g style="fill: #68717c" transform="translate(20.1478 126.3312)">
     <text>
      <tspan x="0" y="-0.421875" style="font-size: 6.2px; font-family: 'DejaVu Sans'; fill: #68717c">m</tspan>
      <tspan x="6.088257" y="-0.421875" style="font-size: 6.2px; font-family: 'DejaVu Sans'; fill: #68717c">a</tspan>
      <tspan x="9.918213" y="-0.421875" style="font-size: 6.2px; font-family: 'DejaVu Sans'; fill: #68717c">n</tspan>
      <tspan x="13.879395" y="-0.421875" style="font-size: 6.2px; font-family: 'DejaVu Sans'; fill: #68717c">y</tspan>
      <tspan x="17.578125" y="-0.421875" style="font-size: 6.2px; font-family: 'DejaVu Sans'; fill: #68717c"> </tspan>
      <tspan x="19.564819" y="-0.421875" style="font-size: 6.2px; font-family: 'DejaVu Sans'; fill: #68717c">p</tspan>
      <tspan x="23.532104" y="-0.421875" style="font-size: 6.2px; font-family: 'DejaVu Sans'; fill: #68717c">r</tspan>
      <tspan x="26.101685" y="-0.421875" style="font-size: 6.2px; font-family: 'DejaVu Sans'; fill: #68717c">i</tspan>
      <tspan x="27.838135" y="-0.421875" style="font-size: 6.2px; font-family: 'DejaVu Sans'; fill: #68717c">m</tspan>
      <tspan x="33.926392" y="-0.421875" style="font-size: 6.2px; font-family: 'DejaVu Sans'; fill: #68717c">i</tspan>
      <tspan x="35.662842" y="-0.421875" style="font-size: 6.2px; font-family: 'DejaVu Sans'; fill: #68717c">t</tspan>
      <tspan x="38.113403" y="-0.421875" style="font-size: 6.2px; font-family: 'DejaVu Sans'; fill: #68717c">i</tspan>
      <tspan x="39.849854" y="-0.421875" style="font-size: 6.2px; font-family: 'DejaVu Sans'; fill: #68717c">v</tspan>
      <tspan x="43.548584" y="-0.421875" style="font-size: 6.2px; font-family: 'DejaVu Sans'; fill: #68717c">e</tspan>
      <tspan x="47.393799" y="-0.421875" style="font-size: 6.2px; font-family: 'DejaVu Sans'; fill: #68717c"> </tspan>
      <tspan x="49.380493" y="-0.421875" style="font-size: 6.2px; font-family: 'DejaVu Sans'; fill: #68717c">s</tspan>
      <tspan x="52.636719" y="-0.421875" style="font-size: 6.2px; font-family: 'DejaVu Sans'; fill: #68717c">t</tspan>
      <tspan x="55.08728" y="-0.421875" style="font-size: 6.2px; font-family: 'DejaVu Sans'; fill: #68717c">a</tspan>
      <tspan x="58.917236" y="-0.421875" style="font-size: 6.2px; font-family: 'DejaVu Sans'; fill: #68717c">t</tspan>
      <tspan x="61.367798" y="-0.421875" style="font-size: 6.2px; font-family: 'DejaVu Sans'; fill: #68717c">e</tspan>
      <tspan x="65.213013" y="-0.421875" style="font-size: 6.2px; font-family: 'DejaVu Sans'; fill: #68717c">s</tspan>
      <tspan x="68.469238" y="-0.421875" style="font-size: 6.2px; font-family: 'DejaVu Sans'; fill: #68717c"> </tspan>
      <tspan x="70.455933" y="-0.421875" style="font-size: 6.2px; font-family: 'DejaVu Sans'; fill: #68717c">|</tspan>
      <tspan x="76.524139" y="-0.421875" style="font-size: 6.2px; font-family: 'DejaVu Sans'; fill: #68717c">|</tspan>
      <tspan x="72.561646" y="-0.421875" style="font-style: italic; font-size: 6.2px; font-family: 'STIXNonUnicode'; fill: #68717c"></tspan>
     </text>
    </g>
   </g>
   <g id="text_4">
    <text style="font-size: 6.1px; font-family: 'Arial', 'Helvetica', 'DejaVu Sans', sans-serif; text-anchor: start; fill: #20252b" x="41.470848" y="157.649619" transform="rotate(-0 41.470848 157.649619)">mandatory boundary</text>
   </g>
   <g id="text_5">
    <text style="font-size: 6.1px; font-family: 'Arial', 'Helvetica', 'DejaVu Sans', sans-serif; text-anchor: start; fill: #20252b" x="41.470848" y="177.759219" transform="rotate(-0 41.470848 177.759219)">turn / articulation</text>
   </g>
   <g id="text_6">
    <text style="font-size: 6.1px; font-family: 'Arial', 'Helvetica', 'DejaVu Sans', sans-serif; text-anchor: start; fill: #20252b" x="41.470848" y="186.226419" transform="rotate(-0 41.470848 186.226419)">candidate universe</text>
   </g>
   <g id="text_7">
    <text style="font-weight: 700; font-size: 8px; font-family: 'Arial', 'Helvetica', 'DejaVu Sans', sans-serif; text-anchor: start; fill: #20252b" x="138.468672" y="23.6664" transform="rotate(-0 138.468672 23.6664)">b</text>
   </g>
   <g id="text_8">
    <text style="font-weight: 700; font-size: 7.4px; font-family: 'Arial', 'Helvetica', 'DejaVu Sans', sans-serif; text-anchor: start; fill: #20252b" x="151.812288" y="23.6664" transform="rotate(-0 151.812288 23.6664)">Frozen Green response</text>
   </g>
   <g id="text_9">
    <!-- $H_K=\sum_{t=0}^{K}(\gamma P_{II})^tP_{IC}$ -->
    <g style="fill: #20252b" transform="translate(160.88688 38.484)">
     <text>
      <tspan x="0" y="-0.948438" style="font-style: oblique; font-size: 7.2px; font-family: 'DejaVu Sans'; fill: #20252b">H</tspan>
      <tspan x="32.147693" y="-0.948438" style="font-style: oblique; font-size: 7.2px; font-family: 'DejaVu Sans'; fill: #20252b">γ</tspan>
      <tspan x="36.43822" y="-0.948438" style="font-style: oblique; font-size: 7.2px; font-family: 'DejaVu Sans'; fill: #20252b">P</tspan>
      <tspan x="49.071777" y="-0.948438" style="font-style: oblique; font-size: 7.2px; font-family: 'DejaVu Sans'; fill: #20252b">P</tspan>
      <tspan x="5.45166" y="0.2" style="font-style: oblique; font-size: 5.04px; font-family: 'DejaVu Sans'; fill: #20252b">K</tspan>
      <tspan x="17.870715" y="5.95" style="font-style: oblique; font-size: 5.04px; font-family: 'DejaVu Sans'; fill: #20252b">t</tspan>
      <tspan x="21.870715" y="-9.423438" style="font-style: oblique; font-size: 5.04px; font-family: 'DejaVu Sans'; fill: #20252b">K</tspan>
      <tspan x="40.810168" y="0.2" style="font-style: oblique; font-size: 5.04px; font-family: 'DejaVu Sans'; fill: #20252b">I</tspan>
      <tspan x="42.306897" y="0.2" style="font-style: oblique; font-size: 5.04px; font-family: 'DejaVu Sans'; fill: #20252b">I</tspan>
      <tspan x="46.890515" y="-3.628125" style="font-style: oblique; font-size: 5.04px; font-family: 'DejaVu Sans'; fill: #20252b">t</tspan>
      <tspan x="53.443726" y="0.2" style="font-style: oblique; font-size: 5.04px; font-family: 'DejaVu Sans'; fill: #20252b">I</tspan>
      <tspan x="54.940454" y="0.2" style="font-style: oblique; font-size: 5.04px; font-family: 'DejaVu Sans'; fill: #20252b">C</tspan>
      <tspan x="10.383533" y="-0.948438" style="font-size: 7.2px; font-family: 'DejaVu Sans'; fill: #20252b">=</tspan>
      <tspan x="29.319202" y="-0.948438" style="font-size: 7.2px; font-family: 'DejaVu Sans'; fill: #20252b">(</tspan>
      <tspan x="43.995032" y="-0.948438" style="font-size: 7.2px; font-family: 'DejaVu Sans'; fill: #20252b">)</tspan>
      <tspan x="19.870715" y="-0.948438" style="font-size: 7.2px; font-family: 'DejaVu Sans Display'; fill: #20252b">∑</tspan>
      <tspan x="20.849304" y="5.95" style="font-size: 5.04px; font-family: 'DejaVu Sans'; fill: #20252b">=</tspan>
      <tspan x="26.090332" y="5.95" style="font-size: 5.04px; font-family: 'DejaVu Sans'; fill: #20252b">0</tspan>
     </text>
    </g>
   </g>
   <g id="text_10">
    <text style="font-size: 6px; font-family: 'Arial', 'Helvetica', 'DejaVu Sans', sans-serif; text-anchor: middle; fill: #68717c" x="190.04688" y="142.2072" transform="rotate(-0 190.04688 142.2072)">schematic first-hit exposure</text>
   </g>
   <g id="text_11">
    <text style="font-size: 5.8px; font-family: 'Arial', 'Helvetica', 'DejaVu Sans', sans-serif; text-anchor: start; fill: #20252b" x="151.299072" y="166.034038" transform="rotate(-0 151.299072 166.034038)">flow</text>
   </g>
   <g id="text_12">
    <text style="font-size: 5.8px; font-family: 'Arial', 'Helvetica', 'DejaVu Sans', sans-serif; text-anchor: start; fill: #20252b" x="186.19776" y="166.034038" transform="rotate(-0 186.19776 166.034038)">Green</text>
   </g>
   <g id="text_13">
    <text style="font-size: 5.8px; font-family: 'Arial', 'Helvetica', 'DejaVu Sans', sans-serif; text-anchor: start; fill: #20252b" x="221.096448" y="166.034038" transform="rotate(-0 221.096448 166.034038)">control</text>
   </g>
   <g id="text_14">
    <text style="font-size: 5.8px; font-family: 'Arial', 'Helvetica', 'DejaVu Sans', sans-serif; text-anchor: start; fill: #20252b" x="151.299072" y="179.793238" transform="rotate(-0 151.299072 179.793238)">topology</text>
   </g>
   <g id="text_15">
    <text style="font-size: 5.8px; font-family: 'Arial', 'Helvetica', 'DejaVu Sans', sans-serif; text-anchor: start; fill: #20252b" x="186.19776" y="179.793238" transform="rotate(-0 186.19776 179.793238)">stochastic</text>
   </g>
   <g id="text_16">
    <text style="font-size: 5.9px; font-family: 'Arial', 'Helvetica', 'DejaVu Sans', sans-serif; text-anchor: middle; fill: #20252b" x="190.04688" y="186.66" transform="rotate(-0 190.04688 186.66)">one sparse message-passing transform</text>
   </g>
   <g id="text_17">
    <text style="font-size: 5.9px; font-family: 'Arial', 'Helvetica', 'DejaVu Sans', sans-serif; text-anchor: middle; fill: #68717c" x="190.04688" y="194.0688" transform="rotate(-0 190.04688 194.0688)">no candidate insertion or recompute</text>
   </g>
   <g id="text_18">
    <text style="font-weight: 700; font-size: 8px; font-family: 'Arial', 'Helvetica', 'DejaVu Sans', sans-serif; text-anchor: start; fill: #20252b" x="274.470912" y="23.6664" transform="rotate(-0 274.470912 23.6664)">c</text>
   </g>
   <g id="text_19">
    <text style="font-weight: 700; font-size: 7.4px; font-family: 'Arial', 'Helvetica', 'DejaVu Sans', sans-serif; text-anchor: start; fill: #20252b" x="287.814528" y="23.6664" transform="rotate(-0 287.814528 23.6664)">Threshold once</text>
   </g>
   <g id="text_20">
    <!-- local maxima with $q\geq2$ support -->
    <g style="fill: #20252b" transform="translate(271.78146 38.484)">
     <text>
      <tspan x="0" y="-0.4375" style="font-size: 6.1px; font-family: 'DejaVu Sans'; fill: #20252b">l</tspan>
      <tspan x="1.701721" y="-0.4375" style="font-size: 6.1px; font-family: 'DejaVu Sans'; fill: #20252b">o</tspan>
      <tspan x="5.449097" y="-0.4375" style="font-size: 6.1px; font-family: 'DejaVu Sans'; fill: #20252b">c</tspan>
      <tspan x="8.81665" y="-0.4375" style="font-size: 6.1px; font-family: 'DejaVu Sans'; fill: #20252b">a</tspan>
      <tspan x="12.570007" y="-0.4375" style="font-size: 6.1px; font-family: 'DejaVu Sans'; fill: #20252b">l</tspan>
      <tspan x="14.271729" y="-0.4375" style="font-size: 6.1px; font-family: 'DejaVu Sans'; fill: #20252b"> </tspan>
      <tspan x="16.218689" y="-0.4375" style="font-size: 6.1px; font-family: 'DejaVu Sans'; fill: #20252b">m</tspan>
      <tspan x="22.185181" y="-0.4375" style="font-size: 6.1px; font-family: 'DejaVu Sans'; fill: #20252b">a</tspan>
      <tspan x="25.938538" y="-0.4375" style="font-size: 6.1px; font-family: 'DejaVu Sans'; fill: #20252b">x</tspan>
      <tspan x="29.563293" y="-0.4375" style="font-size: 6.1px; font-family: 'DejaVu Sans'; fill: #20252b">i</tspan>
      <tspan x="31.265015" y="-0.4375" style="font-size: 6.1px; font-family: 'DejaVu Sans'; fill: #20252b">m</tspan>
      <tspan x="37.231506" y="-0.4375" style="font-size: 6.1px; font-family: 'DejaVu Sans'; fill: #20252b">a</tspan>
      <tspan x="40.984863" y="-0.4375" style="font-size: 6.1px; font-family: 'DejaVu Sans'; fill: #20252b"> </tspan>
      <tspan x="42.931824" y="-0.4375" style="font-size: 6.1px; font-family: 'DejaVu Sans'; fill: #20252b">w</tspan>
      <tspan x="47.941284" y="-0.4375" style="font-size: 6.1px; font-family: 'DejaVu Sans'; fill: #20252b">i</tspan>
      <tspan x="49.643005" y="-0.4375" style="font-size: 6.1px; font-family: 'DejaVu Sans'; fill: #20252b">t</tspan>
      <tspan x="52.044556" y="-0.4375" style="font-size: 6.1px; font-family: 'DejaVu Sans'; fill: #20252b">h</tspan>
      <tspan x="55.926514" y="-0.4375" style="font-size: 6.1px; font-family: 'DejaVu Sans'; fill: #20252b"> </tspan>
      <tspan x="62.954712" y="-0.4375" style="font-size: 6.1px; font-family: 'DejaVu Sans'; fill: #20252b">≥</tspan>
      <tspan x="69.28009" y="-0.4375" style="font-size: 6.1px; font-family: 'DejaVu Sans'; fill: #20252b">2</tspan>
      <tspan x="73.177002" y="-0.4375" style="font-size: 6.1px; font-family: 'DejaVu Sans'; fill: #20252b"> </tspan>
      <tspan x="75.123962" y="-0.4375" style="font-size: 6.1px; font-family: 'DejaVu Sans'; fill: #20252b">s</tspan>
      <tspan x="78.315063" y="-0.4375" style="font-size: 6.1px; font-family: 'DejaVu Sans'; fill: #20252b">u</tspan>
      <tspan x="82.197021" y="-0.4375" style="font-size: 6.1px; font-family: 'DejaVu Sans'; fill: #20252b">p</tspan>
      <tspan x="86.084961" y="-0.4375" style="font-size: 6.1px; font-family: 'DejaVu Sans'; fill: #20252b">p</tspan>
      <tspan x="89.9729" y="-0.4375" style="font-size: 6.1px; font-family: 'DejaVu Sans'; fill: #20252b">o</tspan>
      <tspan x="93.720276" y="-0.4375" style="font-size: 6.1px; font-family: 'DejaVu Sans'; fill: #20252b">r</tspan>
      <tspan x="96.238464" y="-0.4375" style="font-size: 6.1px; font-family: 'DejaVu Sans'; fill: #20252b">t</tspan>
      <tspan x="57.873474" y="-0.4375" style="font-style: oblique; font-size: 6.1px; font-family: 'DejaVu Sans'; fill: #20252b">q</tspan>
     </text>
    </g>
   </g>
   <g id="text_21">
    <text style="font-size: 6.1px; font-family: 'Arial', 'Helvetica', 'DejaVu Sans', sans-serif; text-anchor: middle; fill: #20252b" x="320.91696" y="48.0096" transform="rotate(-0 320.91696 48.0096)">topology or stochastic gate</text>
   </g>
   <g id="text_22">
    <text style="font-size: 5.9px; font-family: 'Arial', 'Helvetica', 'DejaVu Sans', sans-serif; text-anchor: middle; fill: #20252b" x="286.27488" y="131.6232" transform="rotate(-0 286.27488 131.6232)">S</text>
   </g>
   <g id="text_23">
    <text style="font-size: 5.9px; font-family: 'Arial', 'Helvetica', 'DejaVu Sans', sans-serif; text-anchor: middle; fill: #20252b" x="314.50176" y="97.7544" transform="rotate(-0 314.50176 97.7544)">b1</text>
   </g>
   <g id="text_24">
    <text style="font-size: 5.9px; font-family: 'Arial', 'Helvetica', 'DejaVu Sans', sans-serif; text-anchor: middle; fill: #20252b" x="335.0304" y="152.7912" transform="rotate(-0 335.0304 152.7912)">b2</text>
   </g>
   <g id="text_25">
    <text style="font-size: 5.9px; font-family: 'Arial', 'Helvetica', 'DejaVu Sans', sans-serif; text-anchor: middle; fill: #20252b" x="355.55904" y="121.0392" transform="rotate(-0 355.55904 121.0392)">G</text>
   </g>
   <g id="text_26">
    <text style="font-weight: 700; font-size: 6.4px; font-family: 'Arial', 'Helvetica', 'DejaVu Sans', sans-serif; text-anchor: middle; fill: #20252b" x="320.91696" y="164.4336" transform="rotate(-0 320.91696 164.4336)">selected boundary graph</text>
   </g>
   <g id="text_27">
    <text style="font-size: 6.2px; font-family: 'Arial', 'Helvetica', 'DejaVu Sans', sans-serif; text-anchor: middle; fill: #20252b" x="320.91696" y="178.1928" transform="rotate(-0 320.91696 178.1928)">build kernels once</text>
   </g>
   <g id="text_28">
    <text style="font-size: 5.8px; font-family: 'Arial', 'Helvetica', 'DejaVu Sans', sans-serif; text-anchor: middle; fill: #68717c" x="320.91696" y="189.8352" transform="rotate(-0 320.91696 189.8352)">option edges replace interior states</text>
   </g>
   <g id="text_29">
    <text style="font-weight: 700; font-size: 8px; font-family: 'Arial', 'Helvetica', 'DejaVu Sans', sans-serif; text-anchor: start; fill: #20252b" x="400.208832" y="23.6664" transform="rotate(-0 400.208832 23.6664)">d</text>
   </g>
   <g id="text_30">
    <text style="font-weight: 700; font-size: 7.4px; font-family: 'Arial', 'Helvetica', 'DejaVu Sans', sans-serif; text-anchor: start; fill: #20252b" x="413.552448" y="23.6664" transform="rotate(-0 413.552448 23.6664)">Audit and plan</text>
   </g>
   <g id="text_31">
    <text style="font-size: 6px; font-family: 'Arial', 'Helvetica', 'DejaVu Sans', sans-serif; text-anchor: middle; fill: #20252b" x="451.78704" y="76.125225" transform="rotate(-0 451.78704 76.125225)">value + group</text>
   </g>
   <g id="text_32">
    <text style="font-size: 6px; font-family: 'Arial', 'Helvetica', 'DejaVu Sans', sans-serif; text-anchor: middle; fill: #20252b" x="451.78704" y="84.592425" transform="rotate(-0 451.78704 84.592425)">audit</text>
   </g>
   <g id="text_33">
    <text style="font-weight: 700; font-size: 5.8px; font-family: 'Arial', 'Helvetica', 'DejaVu Sans', sans-serif; text-anchor: middle; fill: #4f9b8f" x="427.40928" y="146.4408" transform="rotate(-0 427.40928 146.4408)">pass</text>
   </g>
   <g id="text_34">
    <text style="font-size: 5.9px; font-family: 'Arial', 'Helvetica', 'DejaVu Sans', sans-serif; text-anchor: middle; fill: #20252b" x="427.40928" y="158.0832" transform="rotate(-0 427.40928 158.0832)">graph-SMDP</text>
   </g>
   <g id="text_35">
    <text style="font-size: 5.9px; font-family: 'Arial', 'Helvetica', 'DejaVu Sans', sans-serif; text-anchor: middle; fill: #20252b" x="427.40928" y="165.492" transform="rotate(-0 427.40928 165.492)">planning</text>
   </g>
   <g id="text_36">
    <text style="font-weight: 700; font-size: 5.8px; font-family: 'Arial', 'Helvetica', 'DejaVu Sans', sans-serif; text-anchor: middle; fill: #c65d57" x="476.1648" y="146.4408" transform="rotate(-0 476.1648 146.4408)">fail</text>
   </g>
   <g id="text_37">
    <text style="font-size: 5.9px; font-family: 'Arial', 'Helvetica', 'DejaVu Sans', sans-serif; text-anchor: middle; fill: #20252b" x="476.1648" y="158.0832" transform="rotate(-0 476.1648 158.0832)">adaptive RD</text>
   </g>
   <g id="text_38">
    <text style="font-size: 5.9px; font-family: 'Arial', 'Helvetica', 'DejaVu Sans', sans-serif; text-anchor: middle; fill: #20252b" x="476.1648" y="165.492" transform="rotate(-0 476.1648 165.492)">fallback</text>
   </g>
   <g id="text_39">
    <text style="font-size: 5.8px; font-family: 'Arial', 'Helvetica', 'DejaVu Sans', sans-serif; text-anchor: middle; fill: #68717c" x="451.78704" y="184.5432" transform="rotate(-0 451.78704 184.5432)">certify approximation error</text>
   </g>
   <g id="text_40">
    <text style="font-size: 5.8px; font-family: 'Arial', 'Helvetica', 'DejaVu Sans', sans-serif; text-anchor: middle; fill: #68717c" x="451.78704" y="193.0104" transform="rotate(-0 451.78704 193.0104)">not global RD optimality</text>
   </g>
   <g id="line2d_21">
    <path d="M 30.500856 109.68786
" clip-path="url(#p2f3f8816d9)" style="fill: none; stroke: #4c78a8; stroke-width: 1.5; stroke-linecap: square"/>
    <defs>
     <path id="me958ed0d83" d="M -2.5 2.5
L 2.5 2.5
L 2.5 -2.5
L -2.5 -2.5
z
" style="stroke: #ffffff; stroke-width: 0.5; stroke-linejoin: miter"/>
    </defs>
    <g clip-path="url(#p2f3f8816d9)">
     <use xlink:href="#me958ed0d83" x="30.500856" y="109.68786" style="fill: #4c78a8; stroke: #ffffff; stroke-width: 0.5; stroke-linejoin: miter"/>
    </g>
   </g>
   <g id="line2d_22">
    <path d="M 87.852744 86.03262
" clip-path="url(#p2f3f8816d9)" style="fill: none; stroke: #c65d57; stroke-width: 1.5; stroke-linecap: square"/>
    <defs>
     <path id="m36317fa8b5" d="M 0 -3.5
L -0.785799 -1.081559
L -3.328698 -1.081559
L -1.271449 0.413119
L -2.057248 2.831559
L -0 1.336881
L 2.057248 2.831559
L 1.271449 0.413119
L 3.328698 -1.081559
L 0.785799 -1.081559
z
" style="stroke: #ffffff; stroke-width: 0.4; stroke-linejoin: bevel"/>
    </defs>
    <g clip-path="url(#p2f3f8816d9)">
     <use xlink:href="#m36317fa8b5" x="87.852744" y="86.03262" style="fill: #c65d57; stroke: #ffffff; stroke-width: 0.4; stroke-linejoin: bevel"/>
    </g>
   </g>
   <g id="line2d_23">
    <path d="M 30.500856 93.9177
" clip-path="url(#p2f3f8816d9)" style="fill: none; stroke: #1f77b4; stroke-width: 1.5; stroke-linecap: square"/>
    <defs>
     <path id="m52143f2ed9" d="M 0 2.5
C 0.663008 2.5 1.29895 2.236584 1.767767 1.767767
C 2.236584 1.29895 2.5 0.663008 2.5 0
C 2.5 -0.663008 2.236584 -1.29895 1.767767 -1.767767
C 1.29895 -2.236584 0.663008 -2.5 0 -2.5
C -0.663008 -2.5 -1.29895 -2.236584 -1.767767 -1.767767
C -2.236584 -1.29895 -2.5 -0.663008 -2.5 0
C -2.5 0.663008 -2.236584 1.29895 -1.767767 1.767767
C -1.29895 2.236584 -0.663008 2.5 0 2.5
z
" style="stroke: #d5a23f; stroke-width: 1.1"/>
    </defs>
    <g clip-path="url(#p2f3f8816d9)">
     <use xlink:href="#m52143f2ed9" x="30.500856" y="93.9177" style="fill: #ffffff; stroke: #d5a23f; stroke-width: 1.1"/>
    </g>
   </g>
   <g id="line2d_24">
    <path d="M 68.735448 101.80278
" clip-path="url(#p2f3f8816d9)" style="fill: none; stroke: #ff7f0e; stroke-width: 1.5; stroke-linecap: square"/>
    <g clip-path="url(#p2f3f8816d9)">
     <use xlink:href="#m52143f2ed9" x="68.735448" y="101.80278" style="fill: #ffffff; stroke: #d5a23f; stroke-width: 1.1"/>
    </g>
   </g>
   <g id="line2d_25">
    <path d="M 68.735448 86.03262
" clip-path="url(#p2f3f8816d9)" style="fill: none; stroke: #2ca02c; stroke-width: 1.5; stroke-linecap: square"/>
    <g clip-path="url(#p2f3f8816d9)">
     <use xlink:href="#m52143f2ed9" x="68.735448" y="86.03262" style="fill: #ffffff; stroke: #d5a23f; stroke-width: 1.1"/>
    </g>
   </g>
   <g id="line2d_26">
    <path d="M 286.27488 115.7472
" clip-path="url(#p2f3f8816d9)" style="fill: none; stroke: #4c78a8; stroke-width: 1.5; stroke-linecap: square"/>
    <defs>
     <path id="m5a1068c8fc" d="M -3 3
L 3 3
L 3 -3
L -3 -3
z
" style="stroke: #ffffff; stroke-width: 0.6; stroke-linejoin: miter"/>
    </defs>
    <g clip-path="url(#p2f3f8816d9)">
     <use xlink:href="#m5a1068c8fc" x="286.27488" y="115.7472" style="fill: #4c78a8; stroke: #ffffff; stroke-width: 0.6; stroke-linejoin: miter"/>
    </g>
   </g>
   <g id="line2d_27">
    <path d="M 314.50176 81.8784
" clip-path="url(#p2f3f8816d9)" style="fill: none; stroke: #d5a23f; stroke-width: 1.5; stroke-linecap: square"/>
    <defs>
     <path id="m20805a834f" d="M 0 3
C 0.795609 3 1.55874 2.683901 2.12132 2.12132
C 2.683901 1.55874 3 0.795609 3 0
C 3 -0.795609 2.683901 -1.55874 2.12132 -2.12132
C 1.55874 -2.683901 0.795609 -3 0 -3
C -0.795609 -3 -1.55874 -2.683901 -2.12132 -2.12132
C -2.683901 -1.55874 -3 -0.795609 -3 0
C -3 0.795609 -2.683901 1.55874 -2.12132 2.12132
C -1.55874 2.683901 -0.795609 3 0 3
z
" style="stroke: #ffffff; stroke-width: 0.6"/>
    </defs>
    <g clip-path="url(#p2f3f8816d9)">
     <use xlink:href="#m20805a834f" x="314.50176" y="81.8784" style="fill: #d5a23f; stroke: #ffffff; stroke-width: 0.6"/>
    </g>
   </g>
   <g id="line2d_28">
    <path d="M 335.0304 136.9152
" clip-path="url(#p2f3f8816d9)" style="fill: none; stroke: #d5a23f; stroke-width: 1.5; stroke-linecap: square"/>
    <g clip-path="url(#p2f3f8816d9)">
     <use xlink:href="#m20805a834f" x="335.0304" y="136.9152" style="fill: #d5a23f; stroke: #ffffff; stroke-width: 0.6"/>
    </g>
   </g>
   <g id="line2d_29">
    <path d="M 355.55904 105.1632
" clip-path="url(#p2f3f8816d9)" style="fill: none; stroke: #c65d57; stroke-width: 1.5; stroke-linecap: square"/>
    <defs>
     <path id="ma7a82cec08" d="M 0 -4
L -0.898056 -1.236068
L -3.804226 -1.236068
L -1.453085 0.472136
L -2.351141 3.236068
L -0 1.527864
L 2.351141 3.236068
L 1.453085 0.472136
L 3.804226 -1.236068
L 0.898056 -1.236068
z
" style="stroke: #ffffff; stroke-width: 0.6; stroke-linejoin: bevel"/>
    </defs>
    <g clip-path="url(#p2f3f8816d9)">
     <use xlink:href="#ma7a82cec08" x="355.55904" y="105.1632" style="fill: #c65d57; stroke: #ffffff; stroke-width: 0.6; stroke-linejoin: bevel"/>
    </g>
   </g>
  </g>
 </g>
 <defs>
  <clipPath id="p2f3f8816d9">
   <rect x="1.44" y="1.44" width="513.216" height="211.68"/>
  </clipPath>
 </defs>
</svg>
